<svg xmlns="http://www.w3.org/2000/svg" viewBox="0 0 85.86 81.47">

<style type="text/css">
        .rect1 { transition:all ease 2s; }
        .rect2 { transition:all ease 2s; }
        .rect3 { transition:all ease 2s; }
    </style>
	<g id="Capa_2" data-name="Capa 2">

	<g id="Capa_1-2" data-name="Capa 1"><path d="M3.08,52.23H18.7v6.5H3.08A3.13,3.13,0,0,1,0,55.65v-.49A3.1,3.1,0,0,1,3.08,52.23Z"/><path d="M3.08,70.56H18.7v6.52H3.08a3.12,3.12,0,0,1-3.08-3v-.45A3.12,3.12,0,0,1,3.08,70.56Z"/><path d="M16.85,28H11.93V4A4.1,4.1,0,0,1,16,0h49.7a4.08,4.08,0,0,1,4,4v.87H16.85Z"/><path d="M11.93,33.78v-.86H64.82V9.79h4.92L77.25,11V26.28L69.74,28v5.78a4.1,4.1,0,0,1-4,4.06H16A4.1,4.1,0,0,1,11.93,33.78Z"/>

	<rect id="rect1" x="20.77" y="9.18" width="10.83" height="19.43"/>
	<rect id="rect2" x="35.73" y="9.18" width="10.83" height="19.43"/>
	<rect id="rect3" x="50.7" y="9.18" width="10.83" height="19.43"/>

	<path d="M85.86,68.47H64.21a16.84,16.84,0,0,1-16.36,13H24.23V47.8H47.85A16.87,16.87,0,0,1,64.21,60.73H85.86Z"/></g></g></svg>