<svg xmlns="http://www.w3.org/2000/svg" viewBox="0 0 72.01 82.54"><defs><style>.cls-1{fill:#1ae2d3;}.cls-2{font-size:8px;font-family:MyriadPro-Regular, Myriad Pro;}.cls-3{letter-spacing:-0.01em;}.cls-4{letter-spacing:0em;}.cls-5{letter-spacing:-0.01em;}</style></defs><g id="Capa_2" data-name="Capa 2"><g id="Capa_1-2" data-name="Capa 1"><g id="_1" data-name="1"><path id="nube" d="M72,20.42V44.53a3.29,3.29,0,0,1-3.32,3.2H29.61L21.86,59.66V47.73H16.08a3.29,3.29,0,0,1-3.32-3.2V20.42a3.28,3.28,0,0,1,3.32-3.15H68.73A3.29,3.29,0,0,1,72,20.42Z"/><path id="celular" d="M43,54.49h5.54V78.6c0,2.83-1.48,3.94-3.94,3.94H3.29A3.72,3.72,0,0,1,0,78.6V5.78C0,1.78,2,0,5.55,0h10l1.23,3.69H31.46L32.69,0h10C47,0,48.6,1.73,48.6,5.78v4.68H6.86a1.7,1.7,0,0,0-1.48,1.6V70.73a1.48,1.48,0,0,0,1.48,1.35H41.42A1.61,1.61,0,0,0,43,70.73Z"/></g><g id="_2" data-name="2"><path id="texto" class="cls-1" d="M72,20.42V44.53a3.29,3.29,0,0,1-3.32,3.2H29.61L21.86,59.66V47.73H16.08a3.29,3.29,0,0,1-3.32-3.2V20.42a3.28,3.28,0,0,1,3.32-3.15H68.73A3.29,3.29,0,0,1,72,20.42Z"/><text class="cls-2" transform="translate(22.37 28.43)">Cha<tspan class="cls-3" x="12.94" y="0">r</tspan><tspan class="cls-4" x="15.49" y="0">ge </tspan><tspan class="cls-5" x="25.66" y="0">y</tspan><tspan x="29.35" y="0">our </tspan><tspan x="9.47" y="9.6">phone</tspan></text></g></g></g></svg>